#!OML:ASF F:\VICON\USERDATA\INSTALL\rory3\rory3.ASF
:FULLY-SPECIFIED
:DEGREES
387
root 4.79773 16.4826 2.46969 11.2075 -14.4623 -2.66375
lowerback 4.35571 0.266988 0.990017
upperback 1.05205 0.390231 -0.446122
thorax -1.35158 0.190885 -1.03403
lowerneck -12.661 0.304305 -1.35721
upperneck 38.9986 0.901788 -0.653796
head 15.9781 -0.00163115 0.0863758
rclavicle -7.15625e-015 1.86858e-014
rhumerus -21.9159 32.0563 -63.5471
rradius 100.686
rwrist -26.6428
rhand -4.17113 -41.862
rfingers 7.12502
rthumb 21.5896 -70.6785
lclavicle -7.15625e-015 1.86858e-014
lhumerus -10.1865 -31.5116 59.8684
lradius 89.7716
lwrist 52.2397
lhand -21.9296 -27.1417
lfingers 7.12502
lthumb 4.4767 2.79101
rfemur -59.4185 1.98897 16.9921
rtibia 32.7947
rfoot 39.0349 2.46958
rtoes 5.00259
lfemur -35.1361 1.75907 -28.2022
ltibia 48.577
lfoot -22.3939 8.61496
ltoes 10.3362
388
root 4.79048 16.4731 2.4457 11.5462 -14.1505 -2.71333
lowerback 4.30283 0.159633 1.01165
upperback 1.01543 0.248416 -0.423465
thorax -1.36317 0.119892 -1.01512
lowerneck -12.7676 0.303593 -1.3568
upperneck 39.0704 0.882001 -0.600621
head 16.0412 -0.0039573 0.106022
rclavicle 1.89839e-014 3.57812e-015
rhumerus -22.1271 32.046 -63.939
rradius 100.239
rwrist -26.5205
rhand -4.14904 -41.9584
rfingers 7.12502
rthumb 21.6108 -70.7725
lclavicle 1.89839e-014 3.57812e-015
lhumerus -10.4392 -31.7372 60.0548
lradius 89.6516
lwrist 51.9689
lhand -21.9952 -27.0449
lfingers 7.12502
lthumb 4.41342 2.8891
rfemur -59.8439 2.12793 16.871
rtibia 32.8055
rfoot 39.0817 1.72145
rtoes 5.35733
lfemur -35.7519 1.35229 -28.0151
ltibia 48.7146
lfoot -22.2522 8.37008
ltoes 12.1759
389
root 4.79057 16.476 2.43609 11.7163 -14.0194 -2.68438
lowerback 4.2164 0.134332 1.04969
upperback 1.02912 0.21524 -0.445486
thorax -1.30141 0.103684 -1.05689
lowerneck -12.8676 0.262849 -1.39119
upperneck 39.1833 0.815784 -0.554464
head 16.1246 -0.0316801 0.121075
rclavicle 2.65378e-014 -1.27222e-014
rhumerus -22.5145 31.9625 -64.297
rradius 100.014
rwrist -26.3103
rhand -6.74494 -37.8807
rfingers 7.12502
rthumb 19.1161 -66.9613
lclavicle 2.65378e-014 -1.27222e-014
lhumerus -10.7035 -31.9854 60.3073
lradius 89.4446
lwrist 51.8598
lhand -21.9464 -27.3472
lfingers 7.12502
lthumb 4.46051 2.58582
rfemur -60.0575 2.31951 16.6927
rtibia 32.8222
rfoot 39.1623 1.5571
rtoes 5.36798
lfemur -36.0481 0.99563 -27.967
ltibia 48.7241
lfoot -22.1591 8.29825
ltoes 14.1302
390
root 4.79217 16.4911 2.44371 11.5549 -14.2141 -2.64707
lowerback 4.28688 0.219134 1.04652
upperback 1.14931 0.327577 -0.47672
thorax -1.21441 0.160761 -1.09301
lowerneck -12.7412 0.231863 -1.47582
upperneck 39.0889 0.777709 -0.517974
head 16.0438 -0.0529971 0.145902
rclavicle 9.34288e-015 -4.77083e-015
rhumerus -22.9864 31.9622 -64.5884
rradius 99.734
rwrist -26.0069
rhand -5.07232 -40.0266
rfingers 7.12502
rthumb 20.7239 -68.94
lclavicle 9.34288e-015 -4.77083e-015
lhumerus -11.0003 -32.3113 60.6454
lradius 89.2068
lwrist 51.724
lhand -22.1785 -28.0857
lfingers 7.12502
lthumb 4.23643 1.8519
rfemur -59.8909 2.56808 16.6839
rtibia 32.8856
rfoot 39.1753 1.8758
rtoes 5.34737
lfemur -35.7621 0.959365 -28.013
ltibia 48.6679
lfoot -22.2044 8.59062
ltoes 14.0988
391
root 4.79161 16.5032 2.45448 11.4151 -14.3993 -2.66273
lowerback 4.3427 0.309995 1.07257
upperback 1.28164 0.44929 -0.490684
thorax -1.10628 0.222702 -1.1281
lowerneck -12.6364 0.223346 -1.42878
upperneck 38.9463 0.7823 -0.602697
head 15.9448 -0.0528545 0.10188
rclavicle -4.73108e-014 -2.54444e-014
rhumerus -23.6089 31.7611 -64.9493
rradius 99.6422
rwrist -25.5213
rhand -4.3389 -41.7857
rfingers 7.12502
rthumb 21.4285 -70.6206
lclavicle -4.73108e-014 -2.54444e-014
lhumerus -11.2842 -32.6763 60.9816
lradius 89.0717
lwrist 51.5848
lhand -22.252 -28.3294
lfingers 7.12502
lthumb 4.16541 1.60966
rfemur -59.7171 2.84119 16.7076
rtibia 32.9154
rfoot 39.0424 2.06594
rtoes 5.05224
lfemur -35.4726 1.01012 -28.0048
ltibia 48.5577
lfoot -22.2639 8.77559
ltoes 13.89
392
root 4.78108 16.4881 2.43651 11.7209 -13.8373 -2.71293
lowerback 4.4372 0.158759 1.11747
upperback 1.18675 0.252377 -0.42793
thorax -1.26188 0.122947 -1.07941
lowerneck -12.7378 0.230706 -1.29454
upperneck 38.9519 0.784461 -0.673406
head 15.9735 -0.0414799 0.0478043
rclavicle 3.57812e-014 8.74653e-015
rhumerus -24.2783 31.4244 -65.3531
rradius 99.7693
rwrist -25.1033
rhand -4.7884 -41.2356
rfingers 7.12502
rthumb 20.9967 -70.119
lclavicle 3.57812e-014 8.74653e-015
lhumerus -11.532 -32.8639 61.2258
lradius 88.9795
lwrist 51.9092
lhand -21.5132 -28.1556
lfingers 7.12502
lthumb 4.87879 1.76825
rfemur -60.1026 2.8758 16.5421
rtibia 32.9936
rfoot 38.9455 1.66859
rtoes 5.002
lfemur -35.8299 0.595404 -27.84
ltibia 48.54
lfoot -22.0526 8.87226
ltoes 12.2436
